<?xml version="1.0" encoding="UTF-8"?>
<!DOCTYPE svg PUBLIC "-//W3C//DTD SVG 1.0//EN" "http://www.w3.org/TR/2001/REC-SVG-20010904/DTD/svg10.dtd">
<!-- Creator: CorelDRAW X8 -->
<svg xmlns="http://www.w3.org/2000/svg" xml:space="preserve" width="18.9792mm" height="11.9688mm" version="1.0" style="shape-rendering:geometricPrecision; text-rendering:geometricPrecision; image-rendering:optimizeQuality; fill-rule:evenodd; clip-rule:evenodd"
viewBox="0 0 294 185"
 xmlns:xlink="http://www.w3.org/1999/xlink">
 <defs>
  <style type="text/css">
   <![CDATA[
    .fil1 {fill:#C63555}
    .fil0 {fill:#2D8C8D}
   ]]>
  </style>
 </defs>
 <g id="Capa_x0020_1">
  <metadata id="CorelCorpID_0Corel-Layer"/>
  <path class="fil0" d="M164 142l-28 0 0 14 45 0c5,0 11,-1 14,-3 5,-2 8,-4 11,-7 3,-3 5,-7 8,-10 1,-2 2,-4 3,-5 8,-9 16,1 12,8 -4,6 -12,16 -18,21 -9,8 -21,11 -35,11l-75 0 0 -43 63 0c11,0 12,14 0,14l0 0zm81 -8l0 1c0,9 -5,14 -11,21 -4,6 -9,12 -15,17 -17,12 -29,12 -46,12l-6 0 -108 0 0 -72c33,0 66,0 98,0 11,0 16,-1 23,6 4,3 7,9 7,13 0,6 -1,6 -1,9 10,-5 8,-4 15,-13l4 -6c10,-13 27,-11 35,-1 3,4 5,7 5,13l0 0zm-171 -6l13 0 0 43 -13 0 0 -43z"/>
  <path class="fil1" d="M72 28l44 0 0 -15 -44 0 0 15zm58 0l15 0 0 -15 -15 0 0 15zm-130 57l72 0 0 -14 -72 0 0 14zm87 0l14 0 0 -14 -14 0 0 14zm-51 -28l58 0 0 -15 -58 0 0 15zm73 0l14 0 0 -15 -14 0 0 15zm85 -44c-9,0 -22,5 -28,8 -15,8 -28,21 -36,36 -3,6 -8,19 -8,28l-13 0 0 15 185 0 0 -15 -13 0c0,-10 -5,-22 -10,-30 0,-2 -1,-2 -1,-3 -3,-6 -8,-11 -12,-16 -6,-6 -13,-11 -21,-15 -7,-3 -21,-8 -28,-8l0 -13 -15 0 0 13zm7 15c17,0 34,7 46,19l6 6c6,8 13,22 13,32l-129 0c0,0 0,-4 1,-6 0,-2 1,-4 1,-6 3,-8 9,-18 14,-24 1,-1 1,-1 2,-2 1,-1 1,-1 2,-2 12,-11 28,-17 44,-17z"/>
 </g>
</svg>
